<svg width="232" height="180" viewBox="0 0 232 180" fill="none" xmlns="http://www.w3.org/2000/svg">
<circle cx="6" cy="6" r="6" fill="#F2F7FD"/>
<circle cx="6" cy="30" r="6" fill="#F2F7FD"/>
<circle cx="6" cy="54" r="6" fill="#F2F7FD"/>
<circle cx="6" cy="78" r="6" fill="#F2F7FD"/>
<circle cx="6" cy="102" r="6" fill="#F2F7FD"/>
<circle cx="6" cy="126" r="6" fill="#F2F7FD"/>
<circle cx="6" cy="150" r="6" fill="#F2F7FD"/>
<circle cx="6" cy="174" r="6" fill="#F2F7FD"/>
<circle cx="26" cy="6" r="6" fill="#F2F7FD"/>
<circle cx="26" cy="30" r="6" fill="#F2F7FD"/>
<circle cx="26" cy="54" r="6" fill="#F2F7FD"/>
<circle cx="26" cy="78" r="6" fill="#F2F7FD"/>
<circle cx="26" cy="102" r="6" fill="#F2F7FD"/>
<circle cx="26" cy="126" r="6" fill="#F2F7FD"/>
<circle cx="26" cy="150" r="6" fill="#F2F7FD"/>
<circle cx="26" cy="174" r="6" fill="#F2F7FD"/>
<circle cx="46" cy="6" r="6" fill="#F2F7FD"/>
<circle cx="46" cy="30" r="6" fill="#F2F7FD"/>
<circle cx="46" cy="54" r="6" fill="#F2F7FD"/>
<circle cx="46" cy="78" r="6" fill="#F2F7FD"/>
<circle cx="46" cy="102" r="6" fill="#F2F7FD"/>
<circle cx="46" cy="126" r="6" fill="#F2F7FD"/>
<circle cx="46" cy="150" r="6" fill="#F2F7FD"/>
<circle cx="46" cy="174" r="6" fill="#F2F7FD"/>
<circle cx="66" cy="6" r="6" fill="#F2F7FD"/>
<circle cx="66" cy="30" r="6" fill="#F2F7FD"/>
<circle cx="66" cy="54" r="6" fill="#F2F7FD"/>
<circle cx="66" cy="78" r="6" fill="#F2F7FD"/>
<circle cx="66" cy="102" r="6" fill="#F2F7FD"/>
<circle cx="66" cy="126" r="6" fill="#F2F7FD"/>
<circle cx="66" cy="150" r="6" fill="#F2F7FD"/>
<circle cx="66" cy="174" r="6" fill="#F2F7FD"/>
<circle cx="86" cy="6" r="6" fill="#F2F7FD"/>
<circle cx="86" cy="30" r="6" fill="#F2F7FD"/>
<circle cx="86" cy="54" r="6" fill="#F2F7FD"/>
<circle cx="86" cy="78" r="6" fill="#F2F7FD"/>
<circle cx="86" cy="102" r="6" fill="#F2F7FD"/>
<circle cx="86" cy="126" r="6" fill="#F2F7FD"/>
<circle cx="86" cy="150" r="6" fill="#F2F7FD"/>
<circle cx="86" cy="174" r="6" fill="#F2F7FD"/>
<circle cx="106" cy="6" r="6" fill="#F2F7FD"/>
<circle cx="106" cy="30" r="6" fill="#F2F7FD"/>
<circle cx="106" cy="54" r="6" fill="#F2F7FD"/>
<circle cx="106" cy="78" r="6" fill="#F2F7FD"/>
<circle cx="106" cy="102" r="6" fill="#F2F7FD"/>
<circle cx="106" cy="126" r="6" fill="#F2F7FD"/>
<circle cx="106" cy="150" r="6" fill="#F2F7FD"/>
<circle cx="106" cy="174" r="6" fill="#F2F7FD"/>
<circle cx="126" cy="6" r="6" fill="#F2F7FD"/>
<circle cx="126" cy="30" r="6" fill="#F2F7FD"/>
<circle cx="126" cy="54" r="6" fill="#F2F7FD"/>
<circle cx="126" cy="78" r="6" fill="#F2F7FD"/>
<circle cx="126" cy="102" r="6" fill="#F2F7FD"/>
<circle cx="126" cy="126" r="6" fill="#F2F7FD"/>
<circle cx="126" cy="150" r="6" fill="#F2F7FD"/>
<circle cx="126" cy="174" r="6" fill="#F2F7FD"/>
<circle cx="146" cy="6" r="6" fill="#F2F7FD"/>
<circle cx="146" cy="30" r="6" fill="#F2F7FD"/>
<circle cx="146" cy="54" r="6" fill="#F2F7FD"/>
<circle cx="146" cy="78" r="6" fill="#F2F7FD"/>
<circle cx="146" cy="102" r="6" fill="#F2F7FD"/>
<circle cx="146" cy="126" r="6" fill="#F2F7FD"/>
<circle cx="146" cy="150" r="6" fill="#F2F7FD"/>
<circle cx="146" cy="174" r="6" fill="#F2F7FD"/>
<circle cx="166" cy="6" r="6" fill="#F2F7FD"/>
<circle cx="166" cy="30" r="6" fill="#F2F7FD"/>
<circle cx="166" cy="54" r="6" fill="#F2F7FD"/>
<circle cx="166" cy="78" r="6" fill="#F2F7FD"/>
<circle cx="166" cy="102" r="6" fill="#F2F7FD"/>
<circle cx="166" cy="126" r="6" fill="#F2F7FD"/>
<circle cx="166" cy="150" r="6" fill="#F2F7FD"/>
<circle cx="166" cy="174" r="6" fill="#F2F7FD"/>
<circle cx="186" cy="6" r="6" fill="#F2F7FD"/>
<circle cx="186" cy="30" r="6" fill="#F2F7FD"/>
<circle cx="186" cy="54" r="6" fill="#F2F7FD"/>
<circle cx="186" cy="78" r="6" fill="#F2F7FD"/>
<circle cx="186" cy="102" r="6" fill="#F2F7FD"/>
<circle cx="206" cy="6" r="6" fill="#F2F7FD"/>
<circle cx="206" cy="30" r="6" fill="#F2F7FD"/>
<circle cx="206" cy="54" r="6" fill="#F2F7FD"/>
<circle cx="206" cy="78" r="6" fill="#F2F7FD"/>
<circle cx="206" cy="102" r="6" fill="#F2F7FD"/>
<circle cx="226" cy="6" r="6" fill="#F2F7FD"/>
<circle cx="226" cy="30" r="6" fill="#F2F7FD"/>
<circle cx="226" cy="54" r="6" fill="#F2F7FD"/>
<circle cx="226" cy="78" r="6" fill="#F2F7FD"/>
<circle cx="226" cy="102" r="6" fill="#F2F7FD"/>
</svg>
